<?xml version="1.0" encoding="utf-8"?>
<!-- Generator: Adobe Illustrator 23.0.1, SVG Export Plug-In . SVG Version: 6.00 Build 0)  -->
<svg version="1.1" id="Layer_1" xmlns="http://www.w3.org/2000/svg" xmlns:xlink="http://www.w3.org/1999/xlink" x="0px" y="0px"
	 viewBox="0 0 100 100" style="enable-background:new 0 0 100 100;" xml:space="preserve">
<style type="text/css">
	.st0{display:none;}
	.st1{fill:#FD8469;}
	.st2{fill:#84DBFF;}
	.st3{fill:#FFFFFF;}
	.st4{fill:#54C0EB;}
	.st5{fill:#324A5E;}
	.st6{fill:#7BE0FF;}
	.st7{fill:#FF8F8F;}
	.st8{fill:#EAEAEA;}
	.st9{fill:#FC6565;}
	.st10{fill:#E3ECFC;}
	.st11{fill:#373E72;}
	.st12{fill:#C6DBFC;}
	.st13{fill:#000015;}
	.st14{fill:#923167;}
	.st15{fill:#FF9FA3;}
	.st16{opacity:0.12;}
	.st17{fill:#E4EDFD;}
	.st18{clip-path:url(#SVGID_2_);fill:#FFFFFF;}
	.st19{clip-path:url(#SVGID_2_);fill:#FEFEFE;}
	.st20{clip-path:url(#SVGID_2_);fill:#FDFDFE;}
	.st21{clip-path:url(#SVGID_2_);fill:#FCFCFD;}
	.st22{clip-path:url(#SVGID_2_);fill:#FBFBFC;}
	.st23{clip-path:url(#SVGID_2_);fill:#FAFAFB;}
	.st24{clip-path:url(#SVGID_2_);fill:#F9F9FB;}
	.st25{clip-path:url(#SVGID_2_);fill:#F8F8FA;}
	.st26{clip-path:url(#SVGID_2_);fill:#F7F7F9;}
	.st27{clip-path:url(#SVGID_2_);fill:#F6F6F9;}
	.st28{clip-path:url(#SVGID_2_);fill:#F5F5F8;}
	.st29{clip-path:url(#SVGID_2_);fill:#F4F4F7;}
	.st30{clip-path:url(#SVGID_2_);fill:#F3F3F6;}
	.st31{clip-path:url(#SVGID_2_);fill:#F2F2F6;}
	.st32{clip-path:url(#SVGID_2_);fill:#F1F1F5;}
	.st33{clip-path:url(#SVGID_2_);fill:#F0F0F4;}
	.st34{clip-path:url(#SVGID_2_);fill:#EFEFF4;}
	.st35{clip-path:url(#SVGID_2_);fill:#EEEFF3;}
	.st36{clip-path:url(#SVGID_2_);fill:#EDEEF2;}
	.st37{clip-path:url(#SVGID_2_);fill:#ECEDF2;}
	.st38{clip-path:url(#SVGID_2_);fill:#EBECF1;}
	.st39{clip-path:url(#SVGID_2_);fill:#EAEBF0;}
	.st40{clip-path:url(#SVGID_2_);fill:#E9EAEF;}
	.st41{clip-path:url(#SVGID_2_);fill:#E8E9EF;}
	.st42{clip-path:url(#SVGID_2_);fill:#E7E8EE;}
	.st43{clip-path:url(#SVGID_2_);fill:#E6E7ED;}
	.st44{clip-path:url(#SVGID_2_);fill:#E5E6ED;}
	.st45{clip-path:url(#SVGID_2_);fill:#E4E5EC;}
	.st46{clip-path:url(#SVGID_2_);fill:#E3E4EB;}
	.st47{clip-path:url(#SVGID_2_);fill:#E2E3EA;}
	.st48{clip-path:url(#SVGID_2_);fill:#E1E2EA;}
	.st49{clip-path:url(#SVGID_2_);fill:#E0E1E9;}
	.st50{clip-path:url(#SVGID_2_);fill:#DFE0E8;}
	.st51{clip-path:url(#SVGID_2_);fill:#DEDFE8;}
	.st52{clip-path:url(#SVGID_2_);fill:#DDDEE7;}
	.st53{clip-path:url(#SVGID_2_);fill:#DCDDE6;}
	.st54{clip-path:url(#SVGID_2_);fill:#DBDCE5;}
	.st55{clip-path:url(#SVGID_2_);fill:#DADBE5;}
	.st56{clip-path:url(#SVGID_2_);fill:#D9DAE4;}
	.st57{clip-path:url(#SVGID_2_);fill:#D8D9E3;}
	.st58{clip-path:url(#SVGID_2_);fill:#D7D8E3;}
	.st59{clip-path:url(#SVGID_2_);fill:#D6D7E2;}
	.st60{clip-path:url(#SVGID_2_);fill:#D5D6E1;}
	.st61{clip-path:url(#SVGID_2_);fill:#D4D5E1;}
	.st62{clip-path:url(#SVGID_2_);fill:#D3D4E0;}
	.st63{clip-path:url(#SVGID_2_);fill:#D2D3DF;}
	.st64{clip-path:url(#SVGID_2_);fill:#D1D2DE;}
	.st65{clip-path:url(#SVGID_2_);fill:#D0D1DE;}
	.st66{clip-path:url(#SVGID_2_);fill:#CFD0DD;}
	.st67{clip-path:url(#SVGID_2_);fill:#CECFDC;}
	.st68{clip-path:url(#SVGID_2_);fill:#CDCFDC;}
	.st69{clip-path:url(#SVGID_2_);fill:#CCCEDB;}
	.st70{clip-path:url(#SVGID_2_);fill:#CBCDDA;}
	.st71{clip-path:url(#SVGID_2_);fill:#CACCD9;}
	.st72{clip-path:url(#SVGID_2_);fill:#C9CBD9;}
	.st73{clip-path:url(#SVGID_2_);fill:#C8CAD8;}
	.st74{clip-path:url(#SVGID_2_);fill:#C7C9D7;}
	.st75{clip-path:url(#SVGID_2_);fill:#C6C8D7;}
	.st76{clip-path:url(#SVGID_2_);fill:#C5C7D6;}
	.st77{clip-path:url(#SVGID_2_);fill:#C4C6D5;}
	.st78{clip-path:url(#SVGID_2_);fill:#C3C5D4;}
	.st79{clip-path:url(#SVGID_2_);fill:#C2C4D4;}
	.st80{clip-path:url(#SVGID_2_);fill:#C1C3D3;}
	.st81{clip-path:url(#SVGID_2_);fill:#C0C2D2;}
	.st82{clip-path:url(#SVGID_2_);fill:#BFC1D2;}
	.st83{clip-path:url(#SVGID_2_);fill:#BEC0D1;}
	.st84{clip-path:url(#SVGID_2_);fill:#BDBFD0;}
	.st85{clip-path:url(#SVGID_2_);fill:#BCBED0;}
	.st86{clip-path:url(#SVGID_2_);fill:#BBBDCF;}
	.st87{clip-path:url(#SVGID_2_);fill:#BABCCE;}
	.st88{clip-path:url(#SVGID_2_);fill:#B9BBCD;}
	.st89{clip-path:url(#SVGID_2_);fill:#B8BACD;}
	.st90{clip-path:url(#SVGID_2_);fill:#B7B9CC;}
	.st91{clip-path:url(#SVGID_2_);fill:#B6B8CB;}
	.st92{clip-path:url(#SVGID_2_);fill:#B5B7CB;}
	.st93{clip-path:url(#SVGID_2_);fill:#B4B6CA;}
	.st94{clip-path:url(#SVGID_2_);fill:#B3B5C9;}
	.st95{clip-path:url(#SVGID_2_);fill:#B2B4C8;}
	.st96{clip-path:url(#SVGID_2_);fill:#B1B3C8;}
	.st97{clip-path:url(#SVGID_2_);fill:#B0B2C7;}
	.st98{clip-path:url(#SVGID_2_);fill:#AFB1C6;}
	.st99{clip-path:url(#SVGID_2_);fill:#AEB0C6;}
	.st100{clip-path:url(#SVGID_2_);fill:#ADAFC5;}
	.st101{clip-path:url(#SVGID_2_);fill:#ACAFC4;}
	.st102{clip-path:url(#SVGID_2_);fill:#ABAEC3;}
	.st103{clip-path:url(#SVGID_2_);fill:#AAADC3;}
	.st104{clip-path:url(#SVGID_2_);fill:#A9ACC2;}
	.st105{clip-path:url(#SVGID_2_);fill:#A8ABC1;}
	.st106{clip-path:url(#SVGID_2_);fill:#A7AAC1;}
	.st107{clip-path:url(#SVGID_2_);fill:#A6A9C0;}
	.st108{clip-path:url(#SVGID_2_);fill:#A5A8BF;}
	.st109{clip-path:url(#SVGID_2_);fill:#A4A7BF;}
	.st110{clip-path:url(#SVGID_2_);fill:#A3A6BE;}
	.st111{clip-path:url(#SVGID_2_);fill:#A2A5BD;}
	.st112{clip-path:url(#SVGID_2_);fill:#A1A4BC;}
	.st113{clip-path:url(#SVGID_2_);fill:#A0A3BC;}
	.st114{clip-path:url(#SVGID_2_);fill:#9FA2BB;}
	.st115{clip-path:url(#SVGID_2_);fill:#9EA1BA;}
	.st116{clip-path:url(#SVGID_2_);fill:#9DA0BA;}
	.st117{clip-path:url(#SVGID_2_);fill:#9C9FB9;}
	.st118{clip-path:url(#SVGID_2_);fill:#9A9EB8;}
	.st119{clip-path:url(#SVGID_2_);fill:#999DB7;}
	.st120{clip-path:url(#SVGID_2_);fill:#989CB7;}
	.st121{clip-path:url(#SVGID_2_);fill:#979BB6;}
	.st122{clip-path:url(#SVGID_2_);fill:#969AB5;}
	.st123{clip-path:url(#SVGID_2_);fill:#9599B5;}
	.st124{clip-path:url(#SVGID_2_);fill:#9498B4;}
	.st125{clip-path:url(#SVGID_2_);fill:#9397B3;}
	.st126{clip-path:url(#SVGID_2_);fill:#9296B2;}
	.st127{clip-path:url(#SVGID_2_);fill:#9195B2;}
	.st128{clip-path:url(#SVGID_2_);fill:#9094B1;}
	.st129{clip-path:url(#SVGID_2_);fill:#8F93B0;}
	.st130{clip-path:url(#SVGID_2_);fill:#8E92B0;}
	.st131{clip-path:url(#SVGID_2_);fill:#8D91AF;}
	.st132{clip-path:url(#SVGID_2_);fill:#8C90AE;}
	.st133{clip-path:url(#SVGID_2_);fill:#8B8FAE;}
	.st134{clip-path:url(#SVGID_2_);fill:#8A8EAD;}
	.st135{clip-path:url(#SVGID_2_);fill:#898EAC;}
	.st136{clip-path:url(#SVGID_2_);fill:#888DAB;}
	.st137{clip-path:url(#SVGID_2_);fill:#878CAB;}
	.st138{clip-path:url(#SVGID_2_);fill:#868BAA;}
	.st139{clip-path:url(#SVGID_2_);fill:#858AA9;}
	.st140{clip-path:url(#SVGID_2_);fill:#8489A9;}
	.st141{clip-path:url(#SVGID_2_);fill:#8388A8;}
	.st142{clip-path:url(#SVGID_2_);fill:#8287A7;}
	.st143{clip-path:url(#SVGID_2_);fill:#8186A6;}
	.st144{clip-path:url(#SVGID_2_);fill:#8085A6;}
	.st145{clip-path:url(#SVGID_2_);fill:#7F84A5;}
	.st146{clip-path:url(#SVGID_2_);fill:#7E83A4;}
	.st147{clip-path:url(#SVGID_2_);fill:#7D82A4;}
	.st148{clip-path:url(#SVGID_2_);fill:#7C81A3;}
	.st149{clip-path:url(#SVGID_2_);fill:#7B80A2;}
	.st150{clip-path:url(#SVGID_2_);fill:#7A7FA1;}
	.st151{clip-path:url(#SVGID_2_);fill:#797EA1;}
	.st152{clip-path:url(#SVGID_2_);fill:#787DA0;}
	.st153{clip-path:url(#SVGID_2_);fill:#777C9F;}
	.st154{clip-path:url(#SVGID_2_);fill:#767B9F;}
	.st155{clip-path:url(#SVGID_2_);fill:#757A9E;}
	.st156{clip-path:url(#SVGID_2_);fill:#74799D;}
	.st157{clip-path:url(#SVGID_2_);fill:#73789D;}
	.st158{clip-path:url(#SVGID_2_);fill:#72779C;}
	.st159{clip-path:url(#SVGID_2_);fill:#71769B;}
	.st160{clip-path:url(#SVGID_2_);fill:#70759A;}
	.st161{clip-path:url(#SVGID_2_);fill:#6F749A;}
	.st162{clip-path:url(#SVGID_2_);fill:#6E7399;}
	.st163{clip-path:url(#SVGID_2_);fill:#6D7298;}
	.st164{clip-path:url(#SVGID_2_);fill:#6C7198;}
	.st165{clip-path:url(#SVGID_2_);fill:#6B7097;}
	.st166{clip-path:url(#SVGID_2_);fill:#6A6F96;}
	.st167{clip-path:url(#SVGID_2_);fill:#696E95;}
	.st168{clip-path:url(#SVGID_2_);fill:#686E95;}
	.st169{clip-path:url(#SVGID_2_);fill:#676D94;}
	.st170{clip-path:url(#SVGID_2_);fill:#666C93;}
	.st171{clip-path:url(#SVGID_2_);fill:#656B93;}
	.st172{clip-path:url(#SVGID_2_);fill:#646A92;}
	.st173{clip-path:url(#SVGID_2_);fill:#636991;}
	.st174{clip-path:url(#SVGID_2_);fill:#626890;}
	.st175{clip-path:url(#SVGID_2_);fill:#616790;}
	.st176{clip-path:url(#SVGID_2_);fill:#60668F;}
	.st177{clip-path:url(#SVGID_2_);fill:#5F658E;}
	.st178{clip-path:url(#SVGID_2_);fill:#5E648E;}
	.st179{clip-path:url(#SVGID_2_);fill:#5D638D;}
	.st180{clip-path:url(#SVGID_2_);fill:#5C628C;}
	.st181{clip-path:url(#SVGID_2_);fill:#5B618C;}
	.st182{clip-path:url(#SVGID_2_);fill:#5A608B;}
	.st183{clip-path:url(#SVGID_2_);fill:#595F8A;}
	.st184{clip-path:url(#SVGID_2_);fill:#585E89;}
	.st185{clip-path:url(#SVGID_2_);fill:#575D89;}
	.st186{clip-path:url(#SVGID_2_);fill:#565C88;}
	.st187{clip-path:url(#SVGID_2_);fill:#555B87;}
	.st188{clip-path:url(#SVGID_2_);fill:#545A87;}
	.st189{clip-path:url(#SVGID_2_);fill:#535986;}
	.st190{clip-path:url(#SVGID_2_);fill:#525885;}
	.st191{clip-path:url(#SVGID_2_);fill:#515784;}
	.st192{clip-path:url(#SVGID_2_);fill:#505684;}
	.st193{clip-path:url(#SVGID_2_);fill:#4F5583;}
	.st194{clip-path:url(#SVGID_2_);fill:#4E5482;}
	.st195{clip-path:url(#SVGID_2_);fill:#4D5382;}
	.st196{opacity:0.75;}
	.st197{opacity:0.54;}
	.st198{opacity:0.55;}
	.st199{fill:#F3F8FF;}
	.st200{fill:#CECEEC;}
	.st201{fill:#ADC2E0;}
	.st202{fill:#B6B6CE;}
	.st203{fill:#2C3560;}
	.st204{fill:#ACACCC;}
	.st205{fill:#C1C1EA;}
	.st206{fill:#7A2759;}
	.st207{fill:#151C2B;}
	.st208{fill:#1B2233;}
	.st209{fill:#4A5589;}
	.st210{opacity:0.59;}
</style>
<g class="st0">
	
		<image style="display:inline;overflow:visible;" width="512" height="384" id="mzq4Mg_1_" xlink:href="4E5165600A08D7A2.jpg"  transform="matrix(0.3048 0 0 0.3048 -28.0282 -5.9156)">
	</image>
</g>
<g>
	<g class="st16">
		<path class="st13" d="M70.2,27c-0.3,1.2-2.3,10.2-3.1,14.1c-0.2,1.2-0.4,1.9-0.4,1.9s-0.6,2.1-2.1,1.4
			c-1.5-0.7-21.1-12.4-21.1-12.4s-1.3-1.2-0.9-2.7c0.1-0.3,0.3-1.1,0.5-2.2c1.1-4.6,3.6-14.5,3.6-14.5s0.7-0.9,2.2,0l20.5,12
			C69.5,24.6,70.7,25.5,70.2,27z"/>
	</g>
	<g>
		<path class="st17" d="M95.8,81c0,0-24.1,14.2-24.1,14.2c0,0-9.9,0.3-9.9,0.3c0,0,6.1-1.5,6.1-1.5c0,0-4.2-3.2-4.2-3.2
			c-3.8,1.3-5.7,1.7-5.7,1.7c-3.7,0.8-7.4,0.6-7.4,0.6c0,0,0.2,1.1,0.6,3.2c0,0-18.1,0.1-18.1,0.1c0,0-8.1,3.5-8.1,3.5
			c0,0,5.9-5.2,5.9-5.2c0,0-10.7-7.1-10.7-7.1c0,0-15,0.6-15,0.6c9.8-1.5,15-2.3,15-2.3l0,0c1.4-3.3,1.6-3.8,1.6-3.8
			c1.3-2.5,3.6-2.9,5.3-4.1c6.3-4.4,6-18.6,9-20.6c0.1-0.1,2-1.3,2-1.3l0,0c0,0,23.5,12.9,23.5,12.9l0,0c0,0,15.6-8.8,15.6-8.8l0,0
			c0,0,4.7,2.5,12.1,6.3c0,0-7.9,5.9-7.9,5.9C86.3,75.4,91.1,78.2,95.8,81z"/>
	</g>
	<g>
		<g>
			<defs>
				<path id="SVGID_1_" d="M86.7,54.7C81.3,57.8,76,60.9,70.6,64L19.5,36.1l14.3-7.7c6.1,3,12.3,6.1,18.4,9.1c0,0,0.7,0.4,0.7,0.4
					c0.1,0,0.3,0.1,0.7,0.3c0.3,2.3,0.5,3.4,0.5,3.4s-1.7,0.5-4.8,1.4c1.8,1,3.7,2,5.5,3c2-1.4,4-2.8,6-4.2
					C70.4,46.6,85.6,54.1,86.7,54.7z"/>
			</defs>
			<clipPath id="SVGID_2_">
				<use xlink:href="#SVGID_1_"  style="overflow:visible;"/>
			</clipPath>
			<polygon class="st18" points="19.5,32.6 22.4,28.4 25.6,28.4 76.4,64 19.5,64 			"/>
			<polygon class="st18" points="25.9,28.4 76.7,64 76.4,64 25.6,28.4 			"/>
			<polygon class="st19" points="26.2,28.4 77.1,64 76.7,64 25.9,28.4 			"/>
			<polygon class="st20" points="26.6,28.4 77.4,64 77.1,64 26.2,28.4 			"/>
			<polygon class="st21" points="26.9,28.4 77.7,64 77.4,64 26.6,28.4 			"/>
			<polygon class="st22" points="27.3,28.4 78.1,64 77.7,64 26.9,28.4 			"/>
			<polygon class="st23" points="27.6,28.4 78.4,64 78.1,64 27.3,28.4 			"/>
			<polygon class="st24" points="28,28.4 78.8,64 78.4,64 27.6,28.4 			"/>
			<polygon class="st25" points="28.3,28.4 79.1,64 78.8,64 28,28.4 			"/>
			<polygon class="st26" points="28.7,28.4 79.5,64 79.1,64 28.3,28.4 			"/>
			<polygon class="st27" points="29,28.4 79.8,64 79.5,64 28.7,28.4 			"/>
			<polygon class="st28" points="29.3,28.4 80.1,64 79.8,64 29,28.4 			"/>
			<polygon class="st29" points="29.7,28.4 80.5,64 80.1,64 29.3,28.4 			"/>
			<polygon class="st30" points="30,28.4 80.8,64 80.5,64 29.7,28.4 			"/>
			<polygon class="st31" points="30.4,28.4 81.2,64 80.8,64 30,28.4 			"/>
			<polygon class="st32" points="30.7,28.4 81.5,64 81.2,64 30.4,28.4 			"/>
			<polygon class="st33" points="31.1,28.4 81.9,64 81.5,64 30.7,28.4 			"/>
			<polygon class="st34" points="31.4,28.4 82.2,64 81.9,64 31.1,28.4 			"/>
			<polygon class="st35" points="31.7,28.4 82.6,64 82.2,64 31.4,28.4 			"/>
			<polygon class="st36" points="32.1,28.4 82.7,63.9 82.6,64 82.6,64 31.7,28.4 			"/>
			<polygon class="st37" points="32.4,28.4 82.8,63.7 82.7,63.9 32.1,28.4 			"/>
			<polygon class="st38" points="32.8,28.4 82.9,63.6 82.8,63.7 32.4,28.4 			"/>
			<polygon class="st39" points="33.1,28.4 83.1,63.4 82.9,63.6 32.8,28.4 			"/>
			<polygon class="st40" points="33.5,28.4 83.2,63.3 83.1,63.4 33.1,28.4 			"/>
			<polygon class="st41" points="33.8,28.4 83.3,63.1 83.2,63.3 33.5,28.4 			"/>
			<polygon class="st42" points="34.2,28.4 83.4,62.9 83.3,63.1 33.8,28.4 			"/>
			<polygon class="st43" points="34.5,28.4 83.5,62.8 83.4,62.9 34.2,28.4 			"/>
			<polygon class="st44" points="34.8,28.4 83.6,62.6 83.5,62.8 34.5,28.4 			"/>
			<polygon class="st45" points="35.2,28.4 83.7,62.4 83.6,62.6 34.8,28.4 			"/>
			<polygon class="st46" points="35.5,28.4 83.9,62.3 83.7,62.4 35.2,28.4 			"/>
			<polygon class="st47" points="35.9,28.4 84,62.1 83.9,62.3 35.5,28.4 			"/>
			<polygon class="st48" points="36.2,28.4 84.1,62 84,62.1 35.9,28.4 			"/>
			<polygon class="st49" points="36.6,28.4 84.2,61.8 84.1,62 36.2,28.4 			"/>
			<polygon class="st50" points="36.9,28.4 84.3,61.6 84.2,61.8 36.6,28.4 			"/>
			<polygon class="st51" points="37.2,28.4 84.4,61.5 84.3,61.6 36.9,28.4 			"/>
			<polygon class="st52" points="37.6,28.4 84.5,61.3 84.4,61.5 37.2,28.4 			"/>
			<polygon class="st53" points="37.9,28.4 84.6,61.2 84.5,61.3 37.6,28.4 			"/>
			<polygon class="st54" points="38.3,28.4 84.8,61 84.6,61.2 37.9,28.4 			"/>
			<polygon class="st55" points="38.6,28.4 84.9,60.8 84.8,61 38.3,28.4 			"/>
			<polygon class="st56" points="39,28.4 85,60.7 84.9,60.8 38.6,28.4 			"/>
			<polygon class="st57" points="39.3,28.4 85.1,60.5 85,60.7 39,28.4 			"/>
			<polygon class="st58" points="39.7,28.4 85.2,60.3 85.1,60.5 39.3,28.4 			"/>
			<polygon class="st59" points="40,28.4 85.3,60.2 85.2,60.3 39.7,28.4 			"/>
			<polygon class="st60" points="40.3,28.4 85.4,60 85.3,60.2 40,28.4 			"/>
			<polygon class="st61" points="40.7,28.4 85.6,59.9 85.4,60 40.3,28.4 			"/>
			<polygon class="st62" points="41,28.4 85.7,59.7 85.6,59.9 40.7,28.4 			"/>
			<polygon class="st63" points="41.4,28.4 85.8,59.5 85.7,59.7 41,28.4 			"/>
			<polygon class="st64" points="41.7,28.4 85.9,59.4 85.8,59.5 41.4,28.4 			"/>
			<polygon class="st65" points="42.1,28.4 86,59.2 85.9,59.4 41.7,28.4 			"/>
			<polygon class="st66" points="42.4,28.4 86.1,59.1 86,59.2 42.1,28.4 			"/>
			<polygon class="st67" points="42.8,28.4 86.2,58.9 86.1,59.1 42.4,28.4 			"/>
			<polygon class="st68" points="43.1,28.4 86.3,58.7 86.2,58.9 42.8,28.4 			"/>
			<polygon class="st69" points="43.4,28.4 86.5,58.6 86.3,58.7 43.1,28.4 			"/>
			<polygon class="st70" points="43.8,28.4 86.6,58.4 86.5,58.6 43.4,28.4 			"/>
			<polygon class="st71" points="44.1,28.4 86.7,58.2 86.6,58.4 43.8,28.4 			"/>
			<polygon class="st72" points="44.5,28.4 86.7,58 86.7,58.2 86.7,58.2 44.1,28.4 			"/>
			<polygon class="st73" points="44.8,28.4 86.7,57.8 86.7,58 44.5,28.4 			"/>
			<polygon class="st74" points="45.2,28.4 86.7,57.6 86.7,57.8 44.8,28.4 			"/>
			<polygon class="st75" points="45.5,28.4 86.7,57.3 86.7,57.6 45.2,28.4 			"/>
			<polygon class="st76" points="45.8,28.4 86.7,57.1 86.7,57.3 45.5,28.4 			"/>
			<polygon class="st77" points="46.2,28.4 86.7,56.8 86.7,57.1 45.8,28.4 			"/>
			<polygon class="st78" points="46.5,28.4 86.7,56.6 86.7,56.8 46.2,28.4 			"/>
			<polygon class="st79" points="46.9,28.4 86.7,56.4 86.7,56.6 46.5,28.4 			"/>
			<polygon class="st80" points="47.2,28.4 86.7,56.1 86.7,56.4 46.9,28.4 			"/>
			<polygon class="st81" points="47.6,28.4 86.7,55.9 86.7,56.1 47.2,28.4 			"/>
			<polygon class="st82" points="47.9,28.4 86.7,55.6 86.7,55.9 47.6,28.4 			"/>
			<polygon class="st83" points="48.3,28.4 86.7,55.4 86.7,55.6 47.9,28.4 			"/>
			<polygon class="st84" points="48.6,28.4 86.7,55.2 86.7,55.4 48.3,28.4 			"/>
			<polygon class="st85" points="48.9,28.4 86.7,54.9 86.7,55.2 48.6,28.4 			"/>
			<polygon class="st86" points="49.3,28.4 86.7,54.7 86.7,54.9 48.9,28.4 			"/>
			<polygon class="st87" points="49.6,28.4 86.7,54.4 86.7,54.7 49.3,28.4 			"/>
			<polygon class="st88" points="50,28.4 86.7,54.2 86.7,54.4 49.6,28.4 			"/>
			<polygon class="st89" points="50.3,28.4 86.7,53.9 86.7,54.2 50,28.4 			"/>
			<polygon class="st90" points="50.7,28.4 86.7,53.7 86.7,53.9 50.3,28.4 			"/>
			<polygon class="st91" points="51,28.4 86.7,53.5 86.7,53.7 50.7,28.4 			"/>
			<polygon class="st92" points="51.3,28.4 86.7,53.2 86.7,53.5 51,28.4 			"/>
			<polygon class="st93" points="51.7,28.4 86.7,53 86.7,53.2 51.3,28.4 			"/>
			<polygon class="st94" points="52,28.4 86.7,52.7 86.7,53 51.7,28.4 			"/>
			<polygon class="st95" points="52.4,28.4 86.7,52.5 86.7,52.7 52,28.4 			"/>
			<polygon class="st96" points="52.7,28.4 86.7,52.3 86.7,52.5 52.4,28.4 			"/>
			<polygon class="st97" points="53.1,28.4 86.7,52 86.7,52.3 52.7,28.4 			"/>
			<polygon class="st98" points="53.4,28.4 86.7,51.8 86.7,52 53.1,28.4 			"/>
			<polygon class="st99" points="53.8,28.4 86.7,51.5 86.7,51.8 53.4,28.4 			"/>
			<polygon class="st100" points="54.1,28.4 86.7,51.3 86.7,51.5 53.8,28.4 			"/>
			<polygon class="st101" points="54.4,28.4 86.7,51.1 86.7,51.3 54.1,28.4 			"/>
			<polygon class="st102" points="54.8,28.4 86.7,50.8 86.7,51.1 54.4,28.4 			"/>
			<polygon class="st103" points="55.1,28.4 86.7,50.6 86.7,50.8 54.8,28.4 			"/>
			<polygon class="st104" points="55.5,28.4 86.7,50.3 86.7,50.6 55.1,28.4 			"/>
			<polygon class="st105" points="55.8,28.4 86.7,50.1 86.7,50.3 55.5,28.4 			"/>
			<polygon class="st106" points="56.2,28.4 86.7,49.9 86.7,50.1 55.8,28.4 			"/>
			<polygon class="st107" points="56.5,28.4 86.7,49.6 86.7,49.9 56.2,28.4 			"/>
			<polygon class="st108" points="56.8,28.4 86.7,49.4 86.7,49.6 56.5,28.4 			"/>
			<polygon class="st109" points="57.2,28.4 86.7,49.1 86.7,49.4 56.8,28.4 			"/>
			<polygon class="st110" points="57.5,28.4 86.7,48.9 86.7,49.1 57.2,28.4 			"/>
			<polygon class="st111" points="57.9,28.4 86.7,48.6 86.7,48.9 57.5,28.4 			"/>
			<polygon class="st112" points="58.2,28.4 86.7,48.4 86.7,48.6 57.9,28.4 			"/>
			<polygon class="st113" points="58.6,28.4 86.7,48.2 86.7,48.4 58.2,28.4 			"/>
			<polygon class="st114" points="58.9,28.4 86.7,47.9 86.7,48.2 58.6,28.4 			"/>
			<polygon class="st115" points="59.3,28.4 86.7,47.7 86.7,47.9 58.9,28.4 			"/>
			<polygon class="st116" points="59.6,28.4 86.7,47.4 86.7,47.7 59.3,28.4 			"/>
			<polygon class="st117" points="59.9,28.4 86.7,47.2 86.7,47.4 59.6,28.4 			"/>
			<polygon class="st118" points="60.3,28.4 86.7,47 86.7,47.2 59.9,28.4 			"/>
			<polygon class="st119" points="60.6,28.4 86.7,46.7 86.7,47 60.3,28.4 			"/>
			<polygon class="st120" points="61,28.4 86.7,46.5 86.7,46.7 60.6,28.4 			"/>
			<polygon class="st121" points="61.3,28.4 86.7,46.2 86.7,46.5 61,28.4 			"/>
			<polygon class="st122" points="61.7,28.4 86.7,46 86.7,46.2 61.3,28.4 			"/>
			<polygon class="st123" points="62,28.4 86.7,45.8 86.7,46 61.7,28.4 			"/>
			<polygon class="st124" points="62.3,28.4 86.7,45.5 86.7,45.8 62,28.4 			"/>
			<polygon class="st125" points="62.7,28.4 86.7,45.3 86.7,45.5 62.3,28.4 			"/>
			<polygon class="st126" points="63,28.4 86.7,45 86.7,45.3 62.7,28.4 			"/>
			<polygon class="st127" points="63.4,28.4 86.7,44.8 86.7,45 63,28.4 			"/>
			<polygon class="st128" points="63.7,28.4 86.7,44.5 86.7,44.8 63.4,28.4 			"/>
			<polygon class="st129" points="64.1,28.4 86.7,44.3 86.7,44.5 63.7,28.4 			"/>
			<polygon class="st130" points="64.4,28.4 86.7,44.1 86.7,44.3 64.1,28.4 			"/>
			<polygon class="st131" points="64.8,28.4 86.7,43.8 86.7,44.1 64.4,28.4 			"/>
			<polygon class="st132" points="65.1,28.4 86.7,43.6 86.7,43.8 64.8,28.4 			"/>
			<polygon class="st133" points="65.4,28.4 86.7,43.3 86.7,43.6 65.1,28.4 			"/>
			<polygon class="st134" points="65.8,28.4 86.7,43.1 86.7,43.3 65.4,28.4 			"/>
			<polygon class="st135" points="66.1,28.4 86.7,42.9 86.7,43.1 65.8,28.4 			"/>
			<polygon class="st136" points="66.5,28.4 86.7,42.6 86.7,42.9 66.1,28.4 			"/>
			<polygon class="st137" points="66.8,28.4 86.7,42.4 86.7,42.6 66.5,28.4 			"/>
			<polygon class="st138" points="67.2,28.4 86.7,42.1 86.7,42.4 66.8,28.4 			"/>
			<polygon class="st139" points="67.5,28.4 86.7,41.9 86.7,42.1 67.2,28.4 			"/>
			<polygon class="st140" points="67.8,28.4 86.7,41.7 86.7,41.9 67.5,28.4 			"/>
			<polygon class="st141" points="68.2,28.4 86.7,41.4 86.7,41.7 67.8,28.4 			"/>
			<polygon class="st142" points="68.5,28.4 86.7,41.2 86.7,41.4 68.2,28.4 			"/>
			<polygon class="st143" points="68.9,28.4 86.7,40.9 86.7,41.2 68.5,28.4 			"/>
			<polygon class="st144" points="69.2,28.4 86.7,40.7 86.7,40.9 68.9,28.4 			"/>
			<polygon class="st145" points="69.6,28.4 86.7,40.5 86.7,40.7 69.2,28.4 			"/>
			<polygon class="st146" points="69.9,28.4 86.7,40.2 86.7,40.5 69.6,28.4 			"/>
			<polygon class="st147" points="70.3,28.4 86.7,40 86.7,40.2 69.9,28.4 			"/>
			<polygon class="st148" points="70.6,28.4 86.7,39.7 86.7,40 70.3,28.4 			"/>
			<polygon class="st149" points="70.9,28.4 86.7,39.5 86.7,39.7 70.6,28.4 			"/>
			<polygon class="st150" points="71.3,28.4 86.7,39.2 86.7,39.5 70.9,28.4 			"/>
			<polygon class="st151" points="71.6,28.4 86.7,39 86.7,39.2 71.3,28.4 			"/>
			<polygon class="st152" points="72,28.4 86.7,38.8 86.7,39 71.6,28.4 			"/>
			<polygon class="st153" points="72.3,28.4 86.7,38.5 86.7,38.8 72,28.4 			"/>
			<polygon class="st154" points="72.7,28.4 86.7,38.3 86.7,38.5 72.3,28.4 			"/>
			<polygon class="st155" points="73,28.4 86.7,38 86.7,38.3 72.7,28.4 			"/>
			<polygon class="st156" points="73.3,28.4 86.7,37.8 86.7,38 73,28.4 			"/>
			<polygon class="st157" points="73.7,28.4 86.7,37.6 86.7,37.8 73.3,28.4 			"/>
			<polygon class="st158" points="74,28.4 86.7,37.3 86.7,37.6 73.7,28.4 			"/>
			<polygon class="st159" points="74.4,28.4 86.7,37.1 86.7,37.3 74,28.4 			"/>
			<polygon class="st160" points="74.7,28.4 86.7,36.8 86.7,37.1 74.4,28.4 			"/>
			<polygon class="st161" points="75.1,28.4 86.7,36.6 86.7,36.8 74.7,28.4 			"/>
			<polygon class="st162" points="75.4,28.4 86.7,36.4 86.7,36.6 75.1,28.4 			"/>
			<polygon class="st163" points="75.8,28.4 86.7,36.1 86.7,36.4 75.4,28.4 			"/>
			<polygon class="st164" points="76.1,28.4 86.7,35.9 86.7,36.1 75.8,28.4 			"/>
			<polygon class="st165" points="76.4,28.4 86.7,35.6 86.7,35.9 76.1,28.4 			"/>
			<polygon class="st166" points="76.8,28.4 86.7,35.4 86.7,35.6 76.4,28.4 			"/>
			<polygon class="st167" points="77.1,28.4 86.7,35.2 86.7,35.4 76.8,28.4 			"/>
			<polygon class="st168" points="77.5,28.4 86.7,34.9 86.7,35.2 77.1,28.4 			"/>
			<polygon class="st169" points="77.8,28.4 86.7,34.7 86.7,34.9 77.5,28.4 			"/>
			<polygon class="st170" points="78.2,28.4 86.7,34.4 86.7,34.7 77.8,28.4 			"/>
			<polygon class="st171" points="78.5,28.4 86.7,34.2 86.7,34.4 78.2,28.4 			"/>
			<polygon class="st172" points="78.8,28.4 86.7,33.9 86.7,34.2 78.5,28.4 			"/>
			<polygon class="st173" points="79.2,28.4 86.7,33.7 86.7,33.9 78.8,28.4 			"/>
			<polygon class="st174" points="79.5,28.4 86.7,33.5 86.7,33.7 79.2,28.4 			"/>
			<polygon class="st175" points="79.9,28.4 86.7,33.2 86.7,33.5 79.5,28.4 			"/>
			<polygon class="st176" points="80.2,28.4 86.7,33 86.7,33.2 79.9,28.4 			"/>
			<polygon class="st177" points="80.6,28.4 86.7,32.7 86.7,33 80.2,28.4 			"/>
			<polygon class="st178" points="80.9,28.4 86.7,32.5 86.7,32.7 80.6,28.4 			"/>
			<polygon class="st179" points="81.3,28.4 86.7,32.3 86.7,32.5 80.9,28.4 			"/>
			<polygon class="st180" points="81.6,28.4 86.7,32 86.7,32.3 81.3,28.4 			"/>
			<polygon class="st181" points="81.9,28.4 86.7,31.8 86.7,32 81.6,28.4 			"/>
			<polygon class="st182" points="82.3,28.4 86.7,31.5 86.7,31.8 81.9,28.4 			"/>
			<polygon class="st183" points="82.6,28.4 86.7,31.3 86.7,31.5 82.3,28.4 			"/>
			<polygon class="st184" points="83,28.4 86.7,31.1 86.7,31.3 82.6,28.4 			"/>
			<polygon class="st185" points="83.3,28.4 86.7,30.8 86.7,31.1 83,28.4 			"/>
			<polygon class="st186" points="83.7,28.4 86.7,30.6 86.7,30.8 83.3,28.4 			"/>
			<polygon class="st187" points="84,28.4 86.7,30.3 86.7,30.6 83.7,28.4 			"/>
			<polygon class="st188" points="84.4,28.4 86.7,30.1 86.7,30.3 84,28.4 			"/>
			<polygon class="st189" points="84.7,28.4 86.7,29.8 86.7,30.1 84.4,28.4 			"/>
			<polygon class="st190" points="85,28.4 86.7,29.6 86.7,29.8 84.7,28.4 			"/>
			<polygon class="st191" points="85.4,28.4 86.7,29.4 86.7,29.6 85,28.4 			"/>
			<polygon class="st192" points="85.7,28.4 86.7,29.1 86.7,29.4 85.4,28.4 			"/>
			<polygon class="st193" points="86.1,28.4 86.7,28.9 86.7,29.1 85.7,28.4 			"/>
			<polygon class="st194" points="86.4,28.4 86.7,28.6 86.7,28.9 86.1,28.4 			"/>
			<polygon class="st195" points="86.7,28.6 86.4,28.4 86.7,28.4 			"/>
		</g>
	</g>
	<g>
		<path class="st15" d="M63.3,71.9l-0.9,23.7c0,0.3-0.3,0.5-0.6,0.5c-0.3,0-0.5-0.3-0.5-0.5l-0.5-23.7c0-0.7,0.5-1.3,1.2-1.3
			S63.3,71.1,63.3,71.9C63.3,71.8,63.3,71.9,63.3,71.9z"/>
	</g>
	<g>
		<g>
			<path class="st12" d="M63.4,68.5v3.5c0,0.7-0.6,1.3-1.3,1.3c-0.7,0-1.3-0.6-1.3-1.3v-3.4l1,0.6l1.6-0.9
				C63.3,68.3,63.4,68.4,63.4,68.5z"/>
		</g>
	</g>
	<g>
		<path class="st15" d="M85.8,57.8l3,23.3c0,0.3-0.2,0.6-0.5,0.6c-0.3,0-0.6-0.2-0.6-0.4l-4.4-23c-0.1-0.7,0.3-1.3,1-1.5
			C85,56.6,85.6,57,85.8,57.8C85.8,57.7,85.8,57.8,85.8,57.8z"/>
	</g>
	<g>
		<path class="st12" d="M86,58.7c0.1,0.7-0.4,1.4-1.1,1.5c-0.7,0.1-1.4-0.4-1.5-1.1l-0.2-1.4l-0.1-0.9l2.4-1.4l0.1,0.9L86,58.7z"/>
	</g>
	<g>
		<path class="st12" d="M74.3,31l13.1,7.5c-0.8,3.6-1.5,7.2-2.3,10.8c-4.3-2.4-8.7-4.8-13-7.2C72.8,38.4,73.6,34.7,74.3,31z"/>
		<path class="st12" d="M85.1,50.3c-0.2,0-0.3,0-0.5-0.1l-13-7.2c-0.4-0.2-0.6-0.6-0.5-1.1l2.2-11.1c0.1-0.3,0.3-0.6,0.6-0.7
			c0.3-0.1,0.6-0.1,0.9,0l13.1,7.5c0.4,0.2,0.6,0.6,0.5,1.1l-2.3,10.8c-0.1,0.3-0.3,0.6-0.6,0.7C85.4,50.3,85.3,50.3,85.1,50.3z
			 M73.2,41.6l11.2,6.2l1.8-8.8L75,32.6L73.2,41.6z"/>
	</g>
	<g>
		<path class="st12" d="M29.8,1.4c3.6,2.1,7.2,4.2,10.9,6.2c-0.7,2.8-1.3,5.5-2,8.3c-3.6-2.1-7.2-4.2-10.7-6.3
			C28.6,6.9,29.2,4.1,29.8,1.4z"/>
		<path class="st12" d="M38.7,17c-0.2,0-0.4,0-0.5-0.1l-10.7-6.3c-0.4-0.2-0.6-0.7-0.5-1.1l1.8-8.3c0.1-0.3,0.3-0.6,0.6-0.7
			c0.3-0.1,0.6-0.1,0.9,0l10.9,6.2c0.4,0.2,0.6,0.7,0.5,1.1l-2,8.3c-0.1,0.3-0.3,0.6-0.6,0.7C39,16.9,38.9,17,38.7,17z M29.2,9.1
			l8.9,5.2l1.5-6.2l-9-5.2L29.2,9.1z"/>
	</g>
	<g>
		<path class="st12" d="M31.6,15.3c2.8,1.8,5.6,3.5,8.4,5.3c-0.4,2.2-0.9,4.4-1.3,6.7c-2.8-1.8-5.6-3.6-8.3-5.4
			C30.8,19.6,31.2,17.4,31.6,15.3z"/>
		<path class="st12" d="M38.7,27.9c-0.1,0-0.3,0-0.4-0.1l-8.3-5.4c-0.2-0.2-0.4-0.4-0.3-0.7l1.3-6.6c0-0.2,0.2-0.4,0.4-0.5
			c0.2-0.1,0.5-0.1,0.7,0.1l8.4,5.3c0.2,0.2,0.4,0.4,0.3,0.7l-1.3,6.7c0,0.2-0.2,0.4-0.4,0.5C38.9,27.9,38.8,27.9,38.7,27.9z
			 M31.1,21.5l7.1,4.6l1-5.2l-7.1-4.5L31.1,21.5z"/>
	</g>
	<g>
		<path class="st12" d="M54.8,46.5c-0.1,0-0.1,0-0.2-0.1l-5.5-3c-0.2-0.1-0.3-0.4-0.2-0.6c0.1-0.2,0.4-0.3,0.6-0.2l5.3,2.9l5.3-3.7
			c0.2-0.1,0.5-0.1,0.6,0.1c0.1,0.2,0.1,0.5-0.1,0.6L55,46.4C55,46.4,54.9,46.5,54.8,46.5z"/>
	</g>
	<g>
		<path class="st13" d="M69.3,27.7C69,28.8,67,37.8,66.2,41.8c-0.2,1.2-0.4,1.9-0.4,1.9s-0.6,2.1-2.1,1.4
			c-1.5-0.7-21.1-12.4-21.1-12.4s-1.3-1.2-0.9-2.7c0.1-0.3,0.3-1.1,0.5-2.2c1.1-4.6,3.6-14.5,3.6-14.5s0.7-0.9,2.2,0l20.5,12
			C68.5,25.3,69.7,26.1,69.3,27.7z"/>
	</g>
	<g>
		<polygon class="st12" points="47,14.5 43.1,30.3 64.3,43.3 67.7,26.9 		"/>
	</g>
	<g>
		<path class="st10" d="M65.9,43c-0.2,0.8-0.6,2.1-1.5,2.2c-0.3,0.1-0.6-0.1-0.7-0.1c-1.5-0.7-21.1-12.4-21.1-12.4
			c-0.3-0.2-0.8-0.7-0.9-1.4c-0.1-0.5-0.1-1,0-1.3c0.1-0.4,0.1-0.7,0.2-0.9C49.9,33.7,57.9,38.4,65.9,43z"/>
	</g>
	<g class="st196">
		<polygon class="st3" points="47.5,15.9 46.2,21.6 52.1,25.2 53.4,19.8 		"/>
	</g>
	<g class="st197">
		<polygon class="st3" points="50.6,21.4 49.3,27.1 55.2,30.7 56.4,25.3 		"/>
	</g>
	<g class="st197">
		<polygon class="st3" points="59.3,31.5 57.9,37.1 63.8,40.8 65.1,35.4 		"/>
	</g>
	<g class="st197">
		<polygon class="st3" points="59,30.4 57.6,36.1 63.5,39.8 64.8,34.3 		"/>
	</g>
	<g>
		<path class="st3" d="M46.1,22l-1.8,7.3l2.7,1.8c0.7-2.4,1.3-4.9,2-7.3C48,23.2,47.1,22.6,46.1,22z"/>
	</g>
	<g>
		<path class="st3" d="M64.3,25.5c-0.6,2.3-1.1,4.5-1.7,6.8c1,0.6,2.1,1.2,3.1,1.9c0.5-2.3,1-4.6,1.5-7C66.2,26.6,65.2,26,64.3,25.5
			z"/>
	</g>
	<g>
		<circle class="st11" cx="52.3" cy="36.8" r="0.9"/>
	</g>
	<g class="st198">
		<path class="st12" d="M56.8,52.2c1.9,1.1,3.9,2.3,5.8,3.4c-1.2,0.8-2.5,1.5-3.7,2.3c-1.9-1.2-3.8-2.4-5.7-3.5
			C54.4,53.6,55.6,52.9,56.8,52.2z"/>
		<path class="st12" d="M58.9,58.5c-0.1,0-0.2,0-0.3-0.1l-5.7-3.5c-0.2-0.1-0.3-0.3-0.3-0.5c0-0.2,0.1-0.4,0.3-0.5l3.5-2.2
			c0.2-0.1,0.4-0.1,0.6,0l5.8,3.4c0.2,0.1,0.3,0.3,0.3,0.5s-0.1,0.4-0.3,0.5l-3.7,2.3C59.1,58.4,59,58.5,58.9,58.5z M54.3,54.4
			l4.6,2.9l2.6-1.6l-4.7-2.8L54.3,54.4z"/>
	</g>
	<g>
		<path class="st12" d="M57.1,49.3c1.9,1.1,3.9,2.3,5.8,3.4c-1.2,0.8-2.5,1.5-3.7,2.3c-1.9-1.2-3.8-2.4-5.7-3.5
			C54.7,50.8,55.9,50,57.1,49.3z"/>
		<path class="st12" d="M59.2,55.6c-0.1,0-0.2,0-0.3-0.1L53.2,52c-0.2-0.1-0.3-0.3-0.3-0.5c0-0.2,0.1-0.4,0.3-0.5l3.5-2.2
			c0.2-0.1,0.4-0.1,0.6,0l5.8,3.4c0.2,0.1,0.3,0.3,0.3,0.5s-0.1,0.4-0.3,0.5l-3.7,2.3C59.4,55.6,59.3,55.6,59.2,55.6z M54.6,51.5
			l4.6,2.9l2.6-1.6L57.1,50L54.6,51.5z"/>
	</g>
	<g>
		<path class="st14" d="M56.4,51.2c0.2,0.8-0.5,1.5-0.8,1.8c-1.2,1.2-3,1.6-3,1.6l0,0c0,0-1.1-0.9-1.1-1.9c0-0.1,0,0,0.1-0.5
			c0.1-0.5,0.2-1,0.5-1.4c0.1-0.1,0.1-0.2,0.3-0.2c0.1,0,0.2,0.1,0.2,0.1c0.2,0.2,0,0.6,0.1,0.7c0.2,0.1,0.7-0.2,1.8-1
			c0.4-0.3,0.5-0.3,0.7-0.3C55.7,50.1,56.3,50.6,56.4,51.2z"/>
	</g>
	<g>
		<path class="st14" d="M28.8,23.5c-0.5,0.4-0.5,0.9-0.7,1.9c-0.1,0.8,0,0.9-0.1,2.1C28,28.1,28,28.1,28,28.4c0.2,0.7,1,1.3,1.8,1.2
			c0.6-0.1,0.6-0.6,1.8-1.2c0.7-0.4,1.2-0.5,1.2-0.8c0-0.2-0.2-0.4-0.4-0.5c-0.5-0.2-1,0.3-1.2,0.1c-0.1-0.1,0-0.3,0.1-0.5
			c0,0,0.4-1.2-0.1-2.6c-0.1-0.4-0.3-0.7-0.6-0.9C30,23,29.3,23.2,28.8,23.5z"/>
	</g>
	<g>
		<g>
			<path class="st12" d="M87.2,55.4l-1.5,0.9l-2.4,1.4L63.4,69.2L62,69.9c-0.1,0-0.1,0.1-0.2,0.1c-0.1,0-0.1,0-0.2-0.1l-0.8-0.5
				L16.4,43.8l-2.5-1.4l-2.6-1.5c-0.2-0.1-0.3-0.4-0.1-0.6c0.1-0.2,0.4-0.3,0.6-0.2l2.2,1.3l2.5,1.4l44.2,25.6l1,0.6l1.6-0.9
				l19.8-11.4l2.4-1.4l1.2-0.7c0.2-0.1,0.5-0.1,0.6,0.2C87.4,55,87.4,55.3,87.2,55.4z"/>
		</g>
	</g>
	<g>
		<path class="st15" d="M16.2,45.1l-3.4,23.2c0,0.3-0.3,0.5-0.6,0.5c-0.3,0-0.5-0.3-0.5-0.6l2-23.4c0.1-0.7,0.7-1.2,1.4-1.1
			C15.8,43.8,16.3,44.4,16.2,45.1C16.2,45.1,16.2,45.1,16.2,45.1z"/>
	</g>
	<g>
		<path class="st12" d="M16.5,42.9l-0.1,0.9l-0.1,1.1c0,0.2-0.1,0.3-0.1,0.4c0,0,0,0,0,0c-0.2,0.5-0.7,0.8-1.3,0.7
			c-0.6-0.1-1.1-0.5-1.2-1.1c0-0.1,0-0.2,0-0.3l0.2-2.3l0.1-0.9L16.5,42.9z"/>
	</g>
	<g>
		<polygon class="st12" points="43.7,42.8 39.4,45.2 50.1,51.4 54.6,48.6 		"/>
	</g>
	<g>
		<polygon class="st199" points="43.7,42.5 39.4,44.9 50.1,51.1 54.6,48.3 		"/>
	</g>
	<g>
		<path class="st14" d="M34.8,41.9c-0.4,0.4-0.6,1.2-0.8,1.6c-0.4,0.8-2,1.9-3.5,1.8c-2.1-0.1-3.4-2.6-3.8-4.1
			c-0.8-2.9,0.5-7,3.1-7.6c1.6-0.3,3.5,0.6,4.3,1.9c0.4,0.6,0.9,1.9,0.7,3.3c0,0.1-0.3,1.9,0,2.4c0,0,0.2,0.2,0.1,0.4
			C35,41.7,34.9,41.9,34.8,41.9z"/>
	</g>
	<g>
		<path class="st200" d="M31.7,49c1.4,1.1,2.9,2.1,4.5,2.9c1.6,0.8,3.3,1.4,5.1,1.8c1.8,0.4,3.5,0.6,5.2,0.5c1.7-0.2,3.4-0.7,5-1.5
			l1.1,1.9c-1.7,1.1-3.7,1.8-5.8,2.2c-2.1,0.4-4.2,0.2-6.2-0.1c-2-0.3-4-0.8-5.9-1.6c-1.9-0.8-3.7-1.8-5.4-2.9L31.7,49z"/>
	</g>
	<g>
		<path class="st200" d="M21.4,43.3c0.6-2.7,1.4-5.4,2.5-7.9c0.6-1.3,1.2-2.5,1.9-3.7c0.7-1.2,1.5-2.3,2.2-3.4l2,1.3
			c-0.5,1.2-1.1,2.3-1.6,3.4c-0.5,1.2-0.9,2.4-1.2,3.6c-0.7,2.4-1.1,4.9-1.3,7.3L21.4,43.3z"/>
	</g>
	<g>
		<path class="st15" d="M27.7,76.1L27.7,76.1l-0.3,3.9l-1.1,12.5l-0.6,7.1c0,0.3-0.3,0.5-0.6,0.5c-0.3,0-0.5-0.3-0.5-0.6l0.2-7
			l0.3-12.5l0.1-3.9c0-0.7,0.6-1.2,1.3-1.2h0C27.2,74.8,27.8,75.4,27.7,76.1z"/>
	</g>
	<g>
		<path class="st15" d="M47.8,87.4c0,0.3-0.2,0.6-0.5,0.6c-0.3,0-0.6-0.2-0.6-0.4l-0.9-5.1l-1.9-10.4l-0.2-1.2L43,67.7l-0.6-3.2
			c-0.1-0.7,0.3-1.3,1-1.5c0.7-0.1,1.3,0.3,1.5,1c0,0,0,0.1,0,0.1l0.3,2.7l0.4,3v0L47.1,82L47.8,87.4z"/>
	</g>
	<g>
		<path class="st201" d="M28.7,79.8c-0.2,0-0.5,0.1-0.7,0.1c-0.2,0-0.3,0-0.5,0l-1.1,12.5h-1.5l0.3-12.5c-0.6-0.1-1-0.1-1.1-0.2
			c-0.1,0-0.2,0-0.3-0.1v-4.9h4.9L28.7,79.8z"/>
	</g>
	<g>
		<path class="st201" d="M47.1,82l-1.4,0.5l-1.9-10.4c-0.4,0.2-0.8,0.5-1.4,0.8l-0.4-1.4l-0.8-3l1.8-0.7l2.2-0.9l0.5-0.2
			c-0.1,1.8,0.2,2.2-0.1,3.2v0L47.1,82z"/>
	</g>
	<g>
		<path class="st202" d="M29,61c-0.5,1,0.5,2.7,1.6,3.3c2.4,1.4,7.1-0.8,7.7-3.7c0-0.2,0.3-1.5-0.5-2.2c-1.1-1.1-3.4-0.1-7.9,1.9
			C29.6,60.4,29.2,60.6,29,61z"/>
	</g>
	<g>
		<path class="st203" d="M24.6,57.6c-0.4,2.3-4.1,3.8-6.9,3.5c-4.8-0.6-7.8-6.5-7.4-6.9c0.1-0.1,0.5,0.2,1.1,0.5
			c4.3,2.2,9.2-2.4,11.9-0.4C24.4,55.1,24.8,56.6,24.6,57.6z"/>
	</g>
	<g>
		<path class="st15" d="M17,68.9C17,68.9,17,68.9,17,68.9L15.8,71l-0.2,0.4L13.5,75l-5,8.6l-3.2,5.6c-0.2,0.3-0.5,0.4-0.8,0.2
			c-0.2-0.2-0.3-0.5-0.2-0.7l3.1-6.1l4.6-9.1l1.5-3l0.1-0.1l1.3-2.6c0.3-0.6,1.1-0.9,1.7-0.6C17.1,67.5,17.3,68.3,17,68.9z"/>
	</g>
	<g>
		<path class="st201" d="M18.5,71.9l-0.3,0.5l-2.5,3.9c-0.9-0.5-1.7-0.9-2.3-1.3l-5,8.6l-1.2-1l4.6-9.1c-0.2-0.3-0.3-0.6-0.4-0.9
			c-0.2-1.1,0.3-1.9-0.2-2.9l0.7,0.2l1.5,0.5l2.3,0.7L18.5,71.9z"/>
	</g>
	<g>
		<path class="st14" d="M29.5,47.7c-0.2,0.9-1.6,1.5-2.7,1.2C26,48.8,25,48.1,25,47.1c0-1,1-1.8,1.9-1.9
			C28.3,45,29.8,46.6,29.5,47.7z"/>
	</g>
	<g>
		<path class="st204" d="M42.9,61c0.7,2-8.4,9.9-17,8.3c-1.4-0.3-5-0.9-6.4-4c-0.9-1.9-0.9-4.7,0.4-5.5c2.3-1.4,6.1,5.3,11.1,4.2
			c1.9-0.4,5.6-2.4,7.3-3.4c0.4-0.2,1.4-0.9,2.7-0.7C41.6,60,42.7,60.4,42.9,61z"/>
	</g>
	<g>
		<path class="st200" d="M30.7,58c-0.1,0.3-0.1,0.6,0,0.7c0.2,1.1,0.9,4.2,0.2,5.3c-0.6,0.9-2.4,1-4.3,0.6c-0.9-0.2-1.8-0.4-2.5-0.7
			c-0.6-0.2-5-1.9-5-4.3c0-1.3,1.2-1.5,1.9-3.8c0.1-0.3,0.2-0.9,0.2-3.6c0-1.7,0-2.5-0.1-4.2c-0.3-4.8,1.4-10.2,2-10.1
			c0.6,0.1-1,5.5,1.9,8.2c2.2,2.1,4.9,0.5,7,3c1.3,1.5,1.5,3.4,1.6,4.8c0,0.2,0.1,0.5,0.1,0.7c0.1,1,0,2-0.6,2.4
			C32.3,57.7,31.1,57.3,30.7,58z"/>
	</g>
	<g>
		<path class="st13" d="M33.3,39.7c-0.8,0.7-2,1.5-2.4,1.1c-0.3-0.3,0-1-0.4-1.2c-0.2-0.1-0.6,0-0.8,0.3c-0.2,0.4,0.1,0.9,0.2,1.2
			c1,2.1-0.6,3.9,0.5,5.1c0.6,0.7,1.6,0.6,1.8,1.4c0.1,0.3,0.1,0.7-0.1,0.9c-0.2,0.2-0.5,0.1-0.9,0c-1.1-0.2-1.2,0-1.9-0.1
			c-0.9-0.2-1.1-0.7-2.1-1.3c-1.6-1-2.2-0.3-3.4-1.2c-0.2-0.1-1.4-1-1.6-2.5c-0.2-0.9,0.2-1.4,0.6-2.9c0.9-3,0.4-3.5,1.2-4.9
			c0.2-0.4,1.2-2,3-2.7c3.3-1.2,7.8,1.3,7.9,3.8C35,38,33.7,39.3,33.3,39.7z"/>
	</g>
	<g>
		<path class="st205" d="M30.7,58c-0.1,0.3-0.1,0.6,0,0.7c0.2,1.1,0.9,4.2,0.2,5.3c-0.6,0.9-2.4,1-4.3,0.6c0.1-0.3,0.4-0.5,0.8-1.1
			c1.7-2.4-0.3-4.9,1.2-6.4c1-0.9,2.4-0.3,2.9-1.4c0.3-0.7,0.2-2,0.2-2l2,0.9c0.1,1,0,2-0.6,2.4C32.3,57.7,31.1,57.3,30.7,58z"/>
	</g>
	<g>
		<path class="st206" d="M41,81.5c-0.6,0.3-1.3,0.5-1.9,0.4c-1.2-0.3-1.1-1.5-2.5-2.1c-0.3-0.1-0.6-0.2-0.9-0.2
			c-0.9,0-1.5,0.4-2.1-0.2c-0.7-0.6-0.7-2.1-0.2-3c0.1-0.3,0.1-0.2,0.3-0.5c0,0,0.5-0.9,0.7-3.2l2.7,1.4c0,0.9,0.1,1.6,0.1,1.9
			c0,0,0,0.1,0,0.1c0,0.3,0.1,0.4,0.1,0.4c0.1,0.2,0.2,0.6,0.7,1.2c0.2,0.3,0.7,0.8,1.5,1c0,0.2,0,0.3,0.1,0.4
			c0.1,0.4,0.1,0.5,0.1,0.5c0.1,0.2,0.2,0.6,0.7,1.2C40.5,81,40.7,81.2,41,81.5z"/>
	</g>
	<g>
		<g>
			<path class="st207" d="M40.4,78.9C40.4,78.9,40.5,78.9,40.4,78.9C40.5,78.9,40.4,78.9,40.4,78.9z"/>
		</g>
		<g>
			<path class="st207" d="M40.7,78.9c-0.1,0-0.2,0-0.3,0c0,0-0.5,0.2-0.8,0.2c-0.2,0-0.7,0.1-1.7-0.2c-0.9-0.3-1.4-0.7-3.9-2.7
				c-0.2-0.1-0.3-0.2-0.4-0.3l0,0c-0.2,0.3-0.2,0.3-0.3,0.5c0,0,0,0,0,0c-0.4,0.9-0.4,2.3,0.2,3c0.1,0.1,0.1,0.1,0.2,0.1
				c0.1,0.3,0.2,0.8,0.3,1.3c0.1,0.7,0.1,1.3,0,1.6c0,0,0.6,0,0.6,0c-0.1-1.5-0.1-1.5-0.1-1.6c0-0.6,0.2-0.9,0.4-1.3
				c0.4-0.1,0.9-0.1,1.5,0.2c1.4,0.6,1.3,1.9,2.5,2.1c1.1,0.2,2.4-0.6,2.9-1.3c0,0,0,0,0-0.1c0-0.1,0-0.1,0.1-0.2c0,0,0-0.1,0-0.1
				c0-0.1,0-0.1,0-0.2C42,79.5,41.3,79.1,40.7,78.9z"/>
		</g>
	</g>
	<g>
		<path class="st14" d="M44.4,83.1c0,0.1,0,0.1,0,0.2c0,0,0,0.1,0,0.1c0,0.1,0,0.1-0.1,0.2c0,0,0,0,0,0.1c-0.4,0.8-1.8,1.6-2.9,1.3
			c-1.2-0.3-1.1-1.5-2.5-2.1c-1.4-0.6-2.2,0.3-2.9-0.4c-0.7-0.6-0.7-2-0.2-3c0,0,0,0,0,0c0.1-0.2,0.1-0.2,0.3-0.5l0,0
			c0-0.1,0.5-1,0.7-3.2l0.5,0.3l2.2,1.1c0,0.5,0,1,0,1.3c0,0.1,0,0.1,0,0.2c0,0.2,0,0.3,0.1,0.4c0.1,0.4,0.1,0.5,0.1,0.5
			c0.1,0.2,0.2,0.6,0.7,1.2c0.1,0.2,0.3,0.4,0.6,0.6c0.2,0.2,0.5,0.3,0.9,0.4c0.6,0.1,0.7-0.1,1.2,0.1
			C43.7,82.2,44.4,82.6,44.4,83.1z"/>
	</g>
	<g>
		<g>
			<path class="st208" d="M42.8,81.9C42.8,81.9,42.8,81.9,42.8,81.9C42.8,81.9,42.8,81.9,42.8,81.9z"/>
		</g>
		<g>
			<path class="st208" d="M43.1,82c-0.1,0-0.2,0-0.3,0c0,0-0.5,0.2-0.8,0.2c-0.2,0-0.7,0.1-1.7-0.2c-0.9-0.3-1.4-0.7-3.9-2.7
				c-0.2-0.1-0.3-0.2-0.4-0.3l0,0c-0.2,0.3-0.2,0.3-0.3,0.5c0,0,0,0,0,0c-0.4,0.9-0.4,2.3,0.2,3c0.1,0.1,0.1,0.1,0.2,0.1
				c0.1,0.3,0.2,0.8,0.3,1.3c0.1,0.7,0.1,1.3,0,1.6c0,0,0.6,0,0.6,0c-0.1-1.5-0.1-1.5-0.1-1.6c0-0.6,0.2-0.9,0.4-1.3
				c0.4-0.1,0.9-0.1,1.5,0.2c1.4,0.6,1.3,1.9,2.5,2.1c1.1,0.2,2.4-0.6,2.9-1.3c0,0,0,0,0-0.1c0-0.1,0-0.1,0.1-0.2c0,0,0-0.1,0-0.1
				c0-0.1,0-0.1,0-0.2C44.4,82.6,43.7,82.2,43.1,82z"/>
		</g>
	</g>
	<g>
		<path class="st204" d="M40.9,73.5L40.9,73.5c0,0-1.3,3.9-1.3,3.9l0,0c0,0-4.2-1.7-4.2-1.7l0,0c0,0,1.5-0.8,3.1-1.5
			C39.6,73.9,40.9,73.5,40.9,73.5z"/>
	</g>
	<g>
		<path class="st11" d="M45.8,65C45.8,65,45.8,65,45.8,65c-0.1,0.7-0.1,1.2-0.2,1.7c-0.1,1.8,0.2,2.2-0.1,3.2v0c0,0,0,0.1,0,0.1
			c0,0.1,0,0.2-0.1,0.2c-0.2,0.7-0.7,1.3-1.7,1.9c-0.4,0.2-0.8,0.5-1.4,0.8c-1.5,0.9-3.8,2.1-7.3,4c-2.6,1.5-4.3,2.5-6.5,2.9
			c-0.2,0-0.5,0.1-0.7,0.1c-0.2,0-0.3,0-0.5,0c-0.9,0-1.7,0-2.3-0.1c-0.6-0.1-1-0.1-1.1-0.2c-0.1,0-0.2,0-0.3-0.1
			c-1.1-0.2-2-0.6-3.5-1.2c-1.8-0.8-3.2-1.4-4.4-2c-0.9-0.5-1.7-0.9-2.3-1.3c-0.7-0.5-1.3-1-1.6-1.5c-0.2-0.3-0.3-0.6-0.4-0.9
			c-0.2-1.1,0.3-1.9-0.2-2.9c0,0,0,0,0-0.1c0,0,0-0.1-0.1-0.1c-0.5-0.8-1.3-0.9-1.8-2c-0.3-0.6-0.3-1-0.5-1.8
			c-0.3-1.5-0.7-2.2-1.1-3.4c-0.6-1.6-1.9-5.3-0.4-7.1c0.9-1.1,2.6-1,2.9-1c0.1,0,0.3,0,0.4,0c2.9,0.3,4.2,3.5,7.3,6.4
			c4.5,4.2,12.2,7,16.7,4.9c0.8-0.4,2.9-1.6,4.9-2.9c1.3-0.8,2.5-1.7,4.1-1.7c0.4,0,1.3,0.1,1.9,0.7C46.3,62.3,46.1,63.4,45.8,65z"
			/>
	</g>
	<g>
		<path class="st203" d="M45.5,70.1c-0.2,0.7-0.7,1.3-1.7,1.9c-0.4,0.2-0.8,0.5-1.4,0.8c-1.5,0.9-3.8,2.1-7.3,4
			c-2.6,1.5-4.3,2.5-6.5,2.9c-0.2,0-0.5,0.1-0.7,0.1c-0.2,0-0.3,0-0.5,0c-0.9,0-1.7,0-2.3-0.1c-0.6-0.1-1-0.1-1.1-0.2
			c-0.1,0-0.2,0-0.3-0.1c-1.1-0.2-2-0.6-3.5-1.2c-1.8-0.8-3.2-1.4-4.4-2c-0.9-0.5-1.7-0.9-2.3-1.3c-0.7-0.5-1.3-1-1.6-1.5
			c-0.2-0.3-0.3-0.6-0.4-0.9c-0.2-1.1,0.3-1.9-0.2-2.9c0,0,0,0,0-0.1c0.2,0.1,0.5,0.2,0.7,0.3c0.4,0.2,0.9,0.4,1.4,0.6
			c0.6,0.3,1.4,0.6,2.1,0.9c0.8,0.3,1.7,0.7,2.6,1c2,0.7,4.2,1.4,6.7,1.7c7.4,1,13.3-1.1,17.1-2.6c0.5-0.2,1.1-0.4,1.5-0.6
			C44.3,70.5,45,70.3,45.5,70.1z"/>
	</g>
	<g>
		<path class="st209" d="M45.8,65c-2.7,2.2-9.4,3.8-15.3,3.4c-6.4-0.4-10.7-3.3-11.9-4.2c-3.7-2.6-7.9-7.3-8-10
			c2.9,0.3,4.2,3.5,7.3,6.4c4.5,4.2,12.2,7,16.7,4.9c0.8-0.4,2.9-1.6,4.9-2.9c1.3-0.8,2.5-1.7,4.1-1.7c0.4,0,1.3,0.1,1.9,0.7
			C46.3,62.3,46.1,63.4,45.8,65z"/>
	</g>
	<g class="st197">
		<path class="st3" d="M73.2,34.9c-0.3,1.2-0.5,2.4-0.8,3.6c1.3,0.8,2.6,1.5,3.9,2.3c0.2-1.2,0.5-2.5,0.7-3.7
			C75.7,36.3,74.4,35.6,73.2,34.9z"/>
	</g>
	<g class="st197">
		<path class="st3" d="M77.7,37.4c-0.3,1.2-0.5,2.4-0.8,3.6c1.3,0.8,2.6,1.5,3.9,2.3c0.2-1.2,0.5-2.5,0.7-3.7
			C80.3,38.9,79,38.2,77.7,37.4z"/>
	</g>
	<g class="st197">
		<path class="st3" d="M82.3,40.2c-0.3,1.2-0.5,2.4-0.8,3.6c1.3,0.8,2.6,1.5,3.9,2.3c0.2-1.2,0.5-2.5,0.7-3.7
			C84.8,41.6,83.6,40.9,82.3,40.2z"/>
	</g>
	<g class="st196">
		<ellipse class="st3" cx="34.9" cy="21.2" rx="2.2" ry="2.6"/>
	</g>
	<g>
		<path class="st3" d="M34.9,24.5c-1.5,0-2.8-1.5-2.8-3.3c0-1.8,1.3-3.3,2.8-3.3s2.8,1.5,2.8,3.3C37.7,23,36.5,24.5,34.9,24.5z
			 M34.9,18.1c-1.4,0-2.6,1.4-2.6,3.1s1.2,3.1,2.6,3.1s2.6-1.4,2.6-3.1S36.4,18.1,34.9,18.1z"/>
	</g>
	<g class="st196">
		<ellipse class="st3" cx="34.9" cy="21.2" rx="1.2" ry="1.4"/>
	</g>
	<g>
		<path class="st12" d="M61.1,51.2c-0.5,0-1.1-0.1-1.5-0.4c0,0-0.1-0.1,0-0.1c0,0,0.1-0.1,0.1,0c1.1,0.6,2.5,0.5,3.3-0.4
			c0.6-0.6,1-1.7,0.6-2.4c-0.3-0.7-1.1-0.8-2-0.9c-0.9-0.1-1.8-0.3-2.2-1c-0.2-0.4-0.4-1.1-0.3-2c0.1-0.4,0.2-0.8,0.4-1.2
			c0,0,0.1-0.1,0.1,0c0,0,0.1,0.1,0,0.1c-0.2,0.3-0.3,0.7-0.4,1.1c-0.1,0.8,0.1,1.5,0.3,1.9c0.4,0.7,1.3,0.8,2.1,1
			c0.8,0.1,1.7,0.3,2.1,1c0.4,0.8,0,2-0.6,2.6C62.6,51,61.9,51.2,61.1,51.2z"/>
	</g>
	<g class="st210">
		<path class="st3" d="M74.1,51.4c1,0.6,2,1.2,3,1.7c-0.6,0.4-1.3,0.8-1.9,1.2c-1-0.6-1.9-1.2-2.9-1.8
			C72.9,52.2,73.5,51.8,74.1,51.4z"/>
		<path class="st3" d="M75.2,54.7c-0.1,0-0.1,0-0.2,0l-2.9-1.8c-0.1-0.1-0.1-0.1-0.1-0.2s0.1-0.2,0.1-0.2l1.8-1.1
			c0.1-0.1,0.2-0.1,0.3,0l3,1.7c0.1,0.1,0.1,0.1,0.1,0.2c0,0.1,0,0.2-0.1,0.2l-1.9,1.2C75.3,54.6,75.3,54.7,75.2,54.7z M72.9,52.6
			l2.4,1.5l1.3-0.8l-2.4-1.4L72.9,52.6z"/>
	</g>
	<g>
		<path class="st3" d="M74.3,50.7c1,0.6,2,1.2,3,1.7c-0.6,0.4-1.3,0.8-1.9,1.2c-1-0.6-1.9-1.2-2.9-1.8
			C73.1,51.4,73.7,51.1,74.3,50.7z"/>
		<path class="st3" d="M75.4,53.9c-0.1,0-0.1,0-0.2,0l-2.9-1.8c-0.1-0.1-0.1-0.1-0.1-0.2c0-0.1,0.1-0.2,0.1-0.2l1.8-1.1
			c0.1-0.1,0.2-0.1,0.3,0l3,1.7c0.1,0,0.1,0.1,0.1,0.2c0,0.1,0,0.2-0.1,0.2l-1.9,1.2C75.5,53.9,75.4,53.9,75.4,53.9z M73,51.8
			l2.4,1.5l1.4-0.8L74.3,51L73,51.8z"/>
	</g>
	<g>
		<g>
			<path class="st3" d="M69.6,49.3l-2-0.2c-0.2,0-0.4,0.1-0.5,0.3l-2.7,4.9c-0.1,0.2-0.1,0.4,0,0.5c0.1,0.2,0.3,0.3,0.5,0.3l2,0.1
				c0.1,0,0.2,0,0.3-0.1c0.1-0.1,0.2-0.1,0.2-0.2l2.7-4.9c0.1-0.2,0.1-0.4,0-0.5S69.8,49.3,69.6,49.3z"/>
		</g>
		<g>
			<g>
				<path class="st13" d="M67.3,49.5c0.8,0.1,1.6,0.2,2.4,0.3l-2.5,4.7c-0.9-0.1-1.7-0.1-2.6-0.2C65.6,52.7,66.4,51.1,67.3,49.5z"/>
			</g>
		</g>
	</g>
	<g>
		<path class="st12" d="M39.8,16.8c-0.2,0-0.4-0.1-0.6-0.2l-10.7-6.3c-0.4-0.3-0.7-0.8-0.6-1.3l1.8-8.3C29.8,0.4,30,0.1,30.4,0
			c0.3-0.1,0.7-0.1,1.1,0.1l10.9,6.2c0.4,0.3,0.7,0.8,0.6,1.3l-2,8.3c-0.1,0.4-0.3,0.7-0.7,0.8C40.1,16.7,39.9,16.8,39.8,16.8z
			 M30.9,0.1c-0.1,0-0.2,0-0.4,0.1C30.2,0.3,30,0.6,30,0.8l-1.8,8.3c-0.1,0.4,0.1,0.8,0.4,1l10.7,6.3c0.2,0.1,0.5,0.2,0.8,0.1
			c0.3-0.1,0.5-0.3,0.5-0.6l2-8.3c0.1-0.4-0.1-0.8-0.4-1L31.3,0.3C31.2,0.2,31,0.1,30.9,0.1z"/>
	</g>
	<g class="st196">
		<ellipse class="st3" cx="31.2" cy="6.4" rx="2.2" ry="2.6"/>
	</g>
	<g class="st196">
		<ellipse class="st3" cx="31.2" cy="6.4" rx="1.2" ry="1.4"/>
	</g>
</g>
</svg>
